<svg xmlns="http://www.w3.org/2000/svg" viewBox="0 0 800 800" width="800" height="800" preserveAspectRatio="xMidYMid slice">
<defs>
        <linearGradient id="bg" x1="0" y1="0" x2="1" y2="1">
            <stop offset="0" stop-color="#1a1a1a"/>
            <stop offset="1" stop-color="#0d0d0d"/>
        </linearGradient>
        <pattern id="grid" width="40" height="40" patternUnits="userSpaceOnUse">
            <path d="M 40 0 L 0 0 0 40" fill="none" stroke="#2e2e2e" stroke-width="1"/>
        </pattern>
    </defs>
<rect width="100%" height="100%" fill="url(#bg)"/>
<rect width="100%" height="100%" fill="url(#grid)" opacity="0.5"/>
<rect x="1" y="1" width="798" height="798" fill="none" stroke="#2e2e2e" stroke-width="2"/>

        <g transform="translate(400.0,384.0) scale(2.6)" fill="none" stroke="#c9a227" stroke-width="2.2" stroke-linecap="round" stroke-linejoin="round">
            <rect x="-12" y="-8" width="24" height="6" rx="1"/>
            <line x1="-9" y1="-2" x2="-9" y2="10"/>
            <line x1="-5.5" y1="-2" x2="-5.5" y2="10"/>
            <line x1="-2" y1="-2" x2="-2" y2="10"/>
            <line x1="1.5" y1="-2" x2="1.5" y2="10"/>
            <line x1="5" y1="-2" x2="5" y2="10"/>
            <line x1="8.5" y1="-2" x2="8.5" y2="10"/>
        </g>
<text x="50%" y="430.0" text-anchor="middle" font-family="Arial, sans-serif" font-weight="700" font-size="19" letter-spacing="2" fill="#7a766e">TRABAJO REALIZADO 6</text>
<text x="50%" y="456.0" text-anchor="middle" font-family="Arial, sans-serif" font-size="14" letter-spacing="3" fill="#4a4742">FOTO DE CORTE / ESTILO</text>
<text x="50%" y="778" text-anchor="middle" font-family="Arial, sans-serif" font-size="12" letter-spacing="2" fill="#4a4742">800 x 800 px</text>
</svg>