<svg xmlns="http://www.w3.org/2000/svg" viewBox="0 0 1920 1080" width="1920" height="1080" preserveAspectRatio="xMidYMid slice">
<defs>
        <linearGradient id="bg" x1="0" y1="0" x2="1" y2="1">
            <stop offset="0" stop-color="#1a1a1a"/>
            <stop offset="1" stop-color="#0d0d0d"/>
        </linearGradient>
        <pattern id="grid" width="40" height="40" patternUnits="userSpaceOnUse">
            <path d="M 40 0 L 0 0 0 40" fill="none" stroke="#2e2e2e" stroke-width="1"/>
        </pattern>
    </defs>
<rect width="100%" height="100%" fill="url(#bg)"/>
<rect width="100%" height="100%" fill="url(#grid)" opacity="0.5"/>
<rect x="1" y="1" width="1918" height="1078" fill="none" stroke="#2e2e2e" stroke-width="2"/>

        <g transform="translate(960.0,524.0) scale(4)" fill="none" stroke="#c9a227" stroke-width="2.2" stroke-linecap="round" stroke-linejoin="round">
            <rect x="-6" y="-14" width="12" height="28" rx="6"/>
            <path d="M-6 -8 C-2 -8 -2 -2 2 -2 C6 -2 6 4 6 4"/>
            <path d="M-6 0 C-2 0 -2 6 2 6 C6 6 6 12 6 12"/>
            <circle cx="0" cy="-17" r="2.2" fill="#c9a227" stroke="none"/>
            <circle cx="0" cy="17" r="2.2" fill="#c9a227" stroke="none"/>
        </g>
<text x="50%" y="570.0" text-anchor="middle" font-family="Arial, sans-serif" font-weight="700" font-size="46" letter-spacing="2" fill="#7a766e">FOTO PRINCIPAL DEL LOCAL</text>
<text x="50%" y="618.0" text-anchor="middle" font-family="Arial, sans-serif" font-size="34" letter-spacing="3" fill="#4a4742">REEMPLAZAR IMAGEN</text>
<text x="50%" y="1058" text-anchor="middle" font-family="Arial, sans-serif" font-size="30" letter-spacing="2" fill="#4a4742">1920 x 1080 px</text>
</svg>